<svg xmlns="http://www.w3.org/2000/svg" width="560" height="160" viewBox="0 0 560 160" role="img" aria-labelledby="title desc">
  <title id="title">LumaLearn</title>
  <desc id="desc">LumaLearn wordmark with a simple learning spark icon.</desc>
  <rect width="560" height="160" rx="32" fill="#ffffff"/>
  <g transform="translate(36 32)">
    <rect width="96" height="96" rx="24" fill="#111827"/>
    <path d="M29 32h38c8 0 14 6 14 14v34H43c-8 0-14-6-14-14V32Z" fill="#86efac"/>
    <path d="M67 32H43c-8 0-14 6-14 14v34h38c8 0 14-6 14-14V46c0-8-6-14-14-14Z" fill="#38bdf8" fill-opacity=".88"/>
    <path d="M48 20l6 16 16 6-16 6-6 16-6-16-16-6 16-6 6-16Z" fill="#fef08a"/>
  </g>
  <text x="156" y="92" font-family="Inter, ui-sans-serif, system-ui, -apple-system, BlinkMacSystemFont, 'Segoe UI', sans-serif" font-size="58" font-weight="800" fill="#111827">LumaLearn</text>
  <text x="159" y="124" font-family="Inter, ui-sans-serif, system-ui, -apple-system, BlinkMacSystemFont, 'Segoe UI', sans-serif" font-size="18" font-weight="600" fill="#64748b">visual learning in AR</text>
</svg>
